<svg width="398" height="312" viewBox="0 0 398 312" fill="none" xmlns="http://www.w3.org/2000/svg">
<g clip-path="url(#clip0_49_6)">
<path d="M64.6 237.9C67 235.5 70.3 234.1 73.8 234.1H391.2C397 234.1 399.9 241.1 395.8 245.2L333.1 307.9C330.7 310.3 327.4 311.7 323.9 311.7H6.50002C0.700016 311.7 -2.19998 304.7 1.90002 300.6L64.6 237.9Z" fill="#60EEC1"/>
<path d="M64.6 3.8C67.1 1.4 70.4 0 73.8 0H391.2C397 0 399.9 7 395.8 11.1L333.1 73.8C330.7 76.2 327.4 77.6 323.9 77.6H6.50002C0.700016 77.6 -2.19998 70.6 1.90002 66.5L64.6 3.8Z" fill="#60EEC1"/>
<path d="M333.1 120.1C330.7 117.7 327.4 116.3 323.9 116.3H6.50002C0.700016 116.3 -2.19998 123.3 1.90002 127.4L64.6 190.1C67 192.5 70.3 193.9 73.8 193.9H391.2C397 193.9 399.9 186.9 395.8 182.8L333.1 120.1Z" fill="#60EEC1"/>
</g>
<defs>
<clipPath id="clip0_49_6">
<rect width="397.7" height="311.7" fill="white"/>
</clipPath>
</defs>
</svg>
